HIERARCHY
ROOT pelvis
{
  OFFSET 0 100 0
  CHANNELS 6 Xposition Yposition Zposition Zrotation Xrotation Yrotation
  JOINT pelvis_right_femur
  {
    OFFSET -10.78128 -3.44521 -0.5502486
    CHANNELS 3 Zrotation Xrotation Yrotation
    JOINT right_femur_tibia
    {
      OFFSET -0.8047443 -44.0398 -0.1307829
      CHANNELS 3 Zrotation Xrotation Yrotation
      JOINT right_tibia_foot
      {
        OFFSET 3.006224 -47.83518 -5
        CHANNELS 3 Zrotation Xrotation Yrotation
        End Site
        {
          OFFSET 0 -5 15
        }
      }
    }
  }
  JOINT pelvis_left_femur
  {
    OFFSET 10.78128 -3.44521 -0.5502486
    CHANNELS 3 Zrotation Xrotation Yrotation
    JOINT left_femur_tibia
    {
      OFFSET 0.8047443 -44.0398 -0.1307829
      CHANNELS 3 Zrotation Xrotation Yrotation
      JOINT left_tibia_foot
      {
        OFFSET -4.370144 -48.10324 -4.275266
        CHANNELS 3 Zrotation Xrotation Yrotation
        End Site
        {
          OFFSET 0 -5 15
        }
      }
    }
  }
  JOINT pelvis_spine1
  {
    OFFSET 0 6.468898 -3.129235
    CHANNELS 3 Zrotation Xrotation Yrotation
    JOINT spine1
    {
      OFFSET 0 23.15396 4.99043
      CHANNELS 3 Zrotation Xrotation Yrotation
      JOINT spine2
      {
        OFFSET 0 20.79997 -5.064912
        CHANNELS 3 Zrotation Xrotation Yrotation
        JOINT neck
        {
          OFFSET 0 14.38658 9.616178
          CHANNELS 3 Zrotation Xrotation Yrotation
          End Site
          {
            OFFSET 0 20 0
          }
        }
      }
      JOINT right_manubrium
      {
        OFFSET -5.722621 16.35077 3.967754
        CHANNELS 3 Zrotation Xrotation Yrotation
        JOINT right_clavicle
        {
          OFFSET -13.16364 1.694482 -4.693211
          CHANNELS 3 Zrotation Xrotation Yrotation
          JOINT right_humerus
          {
            OFFSET -28.5034 -0.3100689 -2.792744
            CHANNELS 3 Zrotation Xrotation Yrotation
            JOINT right_radius
            {
              OFFSET -25.15693 0.02248979 -1.271978
              CHANNELS 3 Zrotation Xrotation Yrotation
              End Site
              {
                OFFSET -15 0 0
              }
            }
          }
        }
      }
      JOINT left_manubrium
      {
        OFFSET 5.722621 16.35077 3.967754
        CHANNELS 3 Zrotation Xrotation Yrotation
        JOINT left_clavicle
        {
          OFFSET 13.16364 1.694482 -4.693211
          CHANNELS 3 Zrotation Xrotation Yrotation
          JOINT left_humerus
          {
            OFFSET 29.39168 -1.063119 -2.237045
            CHANNELS 3 Zrotation Xrotation Yrotation
            JOINT left_radius
            {
              OFFSET 24.59957 -0.9528479 0.9047498
              CHANNELS 3 Zrotation Xrotation Yrotation
              End Site
              {
                OFFSET 15 -0 -0
              }
            }
          }
        }
      }
    }
  }
}
MOTION
Frames: 21
Frame Time: 0.0416666666667
0 103.5113 0 2.36464 -1.326997 -0.0714054 2.055401 -14.78542 10.09651 -0 41.11217 -0 -6.03769 -17.97552 -3.249319 -8.630976 8.792071 -23.18253 -0 6.034631 -0 16.73166 -10.68088 29.50513 -4.317176 -4.104549 5.78014 2.144071 10.66069 -7.226532 1.79696 23.4012 4.938909 2.001352 -24.19049 8.662209 6.714976 -21.43303 11.27623 85.70269 38.37989 -17.45012 -0 0 15.41653 -4.788761 6.87916 4.612795 3.790357 -18.43181 -3.751301 -91.53972 24.9267 21.22462 0 0 -17.32077 13.54438 14.97058 1.22017
0.3085134 102.789 1.3905 2.24759 -1.195709 -0.1839434 2.112688 -16.04123 9.126604 -0 39.84311 -0 -6.402713 -16.01785 -2.731762 -8.41414 8.807903 -22.21332 -0 6.377127 -0 16.04224 -11.38693 28.63547 -4.23797 -4.021333 5.745731 2.080816 10.94994 -7.439126 1.529451 22.85559 5.399756 2.588756 -23.90229 8.365692 6.887728 -21.25961 11.42381 85.60867 38.43135 -17.77327 -0 0 15.61388 -6.113984 7.375467 4.588168 4.446842 -19.38367 -3.822499 -90.77304 23.00176 20.37406 0 0 -17.80284 14.37307 14.42648 -0.3812346
0.7017393 102.0707 3.295929 1.288569 -0.02928765 -0.2569531 3.099832 -19.40653 7.995115 -0 37.14924 -0 -7.340116 -12.47231 -1.818608 -7.492046 8.733528 -20.79538 -0 6.816883 -0 13.36943 -14.00563 26.76657 -3.732503 -3.886175 5.485469 2.323957 11.17358 -8.153003 0.9868314 21.27629 6.553259 3.726857 -24.49398 8.202551 7.083702 -20.86915 11.79899 85.35942 37.87152 -18.59706 -0 0 16.58439 -8.182865 7.99727 4.595689 6.172552 -21.16517 -2.657811 -90.66832 19.44939 19.87698 0 0 -16.94621 15.53214 13.76216 -3.301122
1.107138 101.1398 5.606306 0.9483157 0.3100177 -0.2292118 3.510549 -21.66412 6.989113 -0 33.88781 -0 -7.282267 -10.31651 -1.44334 -7.069265 9.303878 -19.62113 -0 6.852469 -0 11.65309 -15.91271 25.5497 -3.578895 -3.600264 5.30468 2.304496 11.13534 -8.304368 0.9052641 20.65096 7.039271 4.184019 -24.38971 8.278808 6.863458 -20.28115 11.80232 85.61133 37.35726 -19.18951 -0 0 16.3933 -9.757858 8.919116 4.575508 7.23727 -22.11495 -2.243345 -90.18875 17.93158 18.67975 0 0 -17.52933 16.0207 13.66448 -4.792671
1.497012 99.93635 8.250297 0.8682439 0.3156609 -0.1378659 3.702785 -23.45824 5.97635 -0 30.20929 -0 -6.835194 -8.663761 -1.229371 -6.915126 10.12448 -18.59482 -0 6.387332 -0 10.38863 -17.65375 24.68543 -3.557279 -3.238225 5.166404 2.19826 10.9769 -8.211111 0.9989026 20.47382 7.213007 4.325544 -24.1451 8.430901 6.340503 -19.73713 11.64559 86.13968 36.54875 -19.69883 -0 0 15.72157 -10.95371 9.612956 4.574913 7.980148 -22.69082 -2.184971 -89.7057 17.44332 17.41867 0 0 -18.69521 16.16601 13.87067 -5.558286
1.869138 98.48209 11.24614 0.8098714 0.242364 0.009262465 3.807522 -25.12788 4.775974 -0 26.48759 -0 -6.594108 -6.878608 -0.9378023 -6.793207 10.95451 -17.50448 -0 6.084575 -0 9.104533 -19.21651 23.64181 -3.497264 -2.850069 4.992269 2.097345 10.83115 -8.10014 1.067473 20.39328 7.3252 4.454857 -23.92721 8.472962 5.722307 -19.2607 11.48915 86.73272 35.48416 -20.19565 -0 0 14.90613 -12.04289 9.982925 4.640101 8.59349 -23.243 -2.296637 -89.22199 17.07733 16.22867 0 0 -19.9495 16.25237 14.0445 -6.174236
2.228267 96.86286 14.6212 0.6841752 0.2178026 0.1972523 3.906101 -26.6621 3.539705 -0 23.21887 -0 -6.758427 -4.982536 -0.5664263 -6.607879 11.63581 -16.35344 -0 6.502411 -0 7.715348 -20.3684 22.28626 -3.346316 -2.496856 4.781064 2.046834 10.76095 -8.084256 1.040559 20.24846 7.458546 4.675836 -23.77463 8.340536 5.207102 -18.84707 11.39857 87.2384 34.46684 -20.6864 -0 0 14.1607 -13.0159 10.10353 4.730285 9.098165 -23.84282 -2.465397 -88.7599 16.49227 15.21236 0 0 -20.99404 16.36427 13.99555 -6.796453
2.576379 95.16677 18.39152 0.510026 0.2255684 0.4064411 4.013123 -27.96027 2.366593 -0 20.48407 -0 -7.254867 -3.109705 -0.1648188 -6.367545 12.14301 -15.16534 -0 7.798452 -0 6.305797 -21.00932 20.70571 -3.126038 -2.195447 4.557094 2.042253 10.77487 -8.161356 0.9327594 20.04002 7.598939 4.968695 -23.64918 8.052167 4.833444 -18.47659 11.3688 87.64665 33.62593 -21.16941 -0 0 13.49356 -13.85923 10.07694 4.815767 9.476713 -24.4608 -2.680817 -88.30685 15.67704 14.34625 0 0 -21.81101 16.50977 13.70751 -7.43255
2.91111 93.45523 22.56334 0.3351048 0.1837722 0.616903 4.103443 -28.90905 1.240688 -0 18.11839 -0 -7.949197 -1.340305 0.2347225 -6.113759 12.51086 -13.95541 -0 9.854873 -0 4.977929 -21.17335 19.04068 -2.866561 -1.939349 4.334861 2.06145 10.85516 -8.279365 0.7838628 19.84786 7.702889 5.265541 -23.51284 7.657684 4.517625 -18.14486 11.37356 88.03127 32.85515 -21.63882 -0 0 12.80998 -14.60041 9.939594 4.913414 9.706998 -25.04964 -2.979812 -87.85424 14.76154 13.5804 0 0 -22.48688 16.66593 13.27797 -8.034989
3.227307 91.77356 27.13742 0.1855626 0.0293678 0.8083915 4.166581 -29.42119 0.1292044 -0 15.98531 -0 -8.753279 0.2922689 0.6161487 -5.8698 12.75715 -12.73524 -0 12.56003 -0 3.787735 -20.91786 17.39432 -2.577239 -1.728637 4.120859 2.086753 10.99044 -8.399493 0.6208478 19.73454 7.745471 5.515133 -23.34759 7.2004 4.175678 -17.86071 11.39849 88.45778 32.01049 -22.09213 -0 0 12.04684 -15.28528 9.708374 5.051205 9.778815 -25.58532 -3.38567 -87.41332 13.85255 12.90289 0 0 -23.07239 16.80908 12.81187 -8.559287
3.517782 90.16769 32.10862 0.06438177 -0.27033 0.959049 4.221396 -29.42377 -0.960945 -0 14.06337 -0 -9.621286 1.75881 0.9624705 -5.633997 12.86129 -11.52022 -0 15.91128 -0 2.756264 -20.26666 15.83448 -2.251901 -1.575073 3.923129 2.105572 11.184 -8.505411 0.4568667 19.72404 7.723851 5.694556 -23.14106 6.711309 3.769934 -17.63518 11.44374 88.95495 31.01647 -22.52737 -0 0 11.20398 -15.96055 9.425513 5.24459 9.693193 -26.06438 -3.896779 -87.0077 13.00014 12.33649 0 0 -23.56013 16.92276 12.38522 -8.977333
3.773152 88.69142 37.46114 -0.03396974 -0.7365681 1.04432 4.304121 -28.84116 -1.986277 -0 12.40685 -0 -10.5173 3.017201 1.248356 -5.392163 12.77087 -10.33323 -0 19.96462 -0 1.89654 -19.21934 14.42448 -1.881271 -1.494896 3.756516 2.104238 11.44888 -8.588638 0.3019357 19.81983 7.643711 5.79598 -22.87613 6.216476 3.294266 -17.48105 11.51556 89.52696 29.85631 -22.93621 -0 0 10.32493 -16.66864 9.159485 5.49538 9.457087 -26.49023 -4.499731 -86.66706 12.2303 11.92315 0 0 -23.91184 16.99361 12.058 -9.267381
3.981493 87.40516 43.16173 -0.1149008 -1.390621 1.03695 4.454042 -27.59568 -2.88677 -0 11.09057 -0 -11.39735 4.01661 1.441611 -5.126765 12.4097 -9.20389 -0 24.75795 -0 1.225431 -17.7788 13.23848 -1.460175 -1.502211 3.643368 2.065286 11.80275 -8.638224 0.1695757 20.01999 7.50915 5.815204 -22.53239 5.742561 2.751405 -17.41837 11.6206 90.1679 28.53455 -23.30005 -0 0 9.480136 -17.44642 8.98903 5.798011 9.080934 -26.86639 -5.179748 -86.42564 11.57387 11.71757 0 0 -24.08235 17.00658 11.88993 -9.40436
4.128408 86.36992 49.15292 -0.1827659 -2.252281 0.9084151 4.703144 -25.62236 -3.600758 -0 10.17547 -0 -12.20675 4.70643 1.507432 -4.819093 11.68139 -8.164268 -0 30.25597 -0 0.7622667 -15.97171 12.35838 -0.9910875 -1.604601 3.611926 1.969117 12.2649 -8.639077 0.07829949 20.31951 7.318473 5.747461 -22.09291 5.3174 2.143052 -17.47855 11.76399 90.86588 27.05837 -23.58786 -0 0 8.762921 -18.32247 8.990298 6.144363 8.579385 -27.19554 -5.9225 -86.32154 11.07281 11.78493 0 0 -24.0289 16.94317 11.94133 -9.358992
4.19814 85.63709 55.3481 -0.2429177 -3.330339 0.6318844 5.067604 -22.89131 -4.074282 -0 9.684064 -0 -12.88423 5.043097 1.414104 -4.448585 10.4727 -7.241688 -0 36.3045 -0 0.5237269 -13.86157 11.86096 -0.4875676 -1.798686 3.693144 1.798725 12.85253 -8.574807 0.05021365 20.70508 7.06248 5.587027 -21.55278 4.966991 1.469906 -17.70523 11.94846 91.59982 25.43812 -23.75398 -0 0 8.290166 -19.31 9.226545 6.526538 7.973199 -27.47902 -6.71092 -86.39506 10.77085 12.19747 0 0 -23.7125 16.78205 12.26078 -9.103901
4.176314 85.23325 61.63138 -0.3036463 -4.609213 0.1868972 5.540237 -19.43333 -4.269686 -0 9.573359 -0 -13.36866 4.993567 1.14065 -3.992307 8.664809 -6.449049 -0 42.57793 -0 0.5192423 -11.55855 11.79947 0.02221514 -2.065502 3.914668 1.546727 13.57343 -8.432168 0.1076355 21.14913 6.723588 5.326631 -20.92872 4.710869 0.7339426 -18.1517 12.17263 92.33506 23.69348 -23.73712 -0 0 8.196947 -20.39659 9.734992 6.940231 7.290343 -27.71395 -7.52018 -86.68483 10.69883 13.02646 0 0 -23.09927 16.50002 12.86615 -8.621535
4.054449 85.14102 67.86709 -0.3773163 -6.034326 -0.4343869 6.086922 -15.36268 -4.173802 -0 9.71145 -0 -13.60733 4.53389 0.6851559 -3.424738 6.161165 -5.775278 -0 48.52781 -0 0.7462279 -9.222857 12.18138 0.4948841 -2.368738 4.2907 1.22374 14.41403 -8.206735 0.2673075 21.60658 6.277338 4.955503 -20.26761 4.557818 -0.06036479 -18.87334 12.42774 93.02225 21.85767 -23.46372 -0 0 8.617732 -21.53409 10.51104 7.389772 6.565263 -27.88743 -8.311243 -87.21967 10.86148 14.32764 0 0 -22.16539 16.0725 13.72575 -7.909095
3.835333 85.2822 73.92298 -0.4807468 -7.500193 -1.220761 6.651284 -10.88688 -3.802912 -0 9.880349 -0 -13.56639 3.642232 0.07114355 -2.71725 2.935408 -5.181348 -0 53.36998 -0 1.182688 -7.051912 12.9466 0.8785868 -2.660142 4.809217 0.8656007 15.32547 -7.909726 0.5318699 22.01635 5.699697 4.458295 -19.6495 4.503535 -0.9045172 -19.91271 12.69353 93.60108 19.97983 -22.85998 -0 0 9.652107 -22.63402 11.49578 7.89274 5.836191 -27.96983 -9.023625 -88.00552 11.23008 16.12063 0 0 -20.9059 15.47434 14.74603 -6.977459
3.536902 85.5149 79.70614 -0.6342042 -8.849362 -2.138349 7.168477 -6.290096 -3.203042 -0 9.829345 -0 -13.24364 2.292244 -0.6497837 -1.839645 -0.9095495 -4.608697 -0 56.16962 -0 1.775521 -5.241946 13.95673 1.129748 -2.894127 5.42233 0.5343861 16.21535 -7.573597 0.8800878 22.30904 4.982378 3.819843 -19.17851 4.530742 -1.780894 -21.27743 12.93557 94.008 18.12861 -21.87451 -0 0 11.32108 -23.57456 12.57491 8.479639 5.14086 -27.91235 -9.572249 -89.01112 11.74469 18.36764 0 0 -19.34438 14.6831 15.77397 -5.844776
3.191468 85.65613 85.19942 -0.8570779 -9.89415 -3.133032 7.582968 -1.881441 -2.44647 -0 9.382454 -0 -12.68233 0.4623454 -1.399047 -0.7714286 -5.101289 -4.004262 -0 56.07563 -0 2.428203 -3.926481 15.00956 1.235771 -3.047189 6.049139 0.3064324 16.95694 -7.25017 1.260811 22.42176 4.153203 3.040967 -18.95541 4.610491 -2.651927 -22.91672 13.1088 94.18443 16.39778 -20.50751 -0 0 13.53152 -24.22484 13.59582 9.183661 4.511315 -27.65647 -9.858897 -90.16227 12.3249 20.96262 0 0 -17.53776 13.68878 16.62157 -4.531932
2.839052 85.53005 90.47585 -1.157876 -10.46988 -4.139712 7.859986 2.083347 -1.625204 -0 8.559493 -0 -11.97839 -1.82306 -2.077005 0.469486 -9.222524 -3.357936 -0 52.6815 -0 3.002406 -3.116232 15.88858 1.229083 -3.130192 6.598096 0.2434519 17.42408 -6.994027 1.598747 22.31857 3.289992 2.163908 -19.03269 4.703497 -3.446446 -24.7097 13.17172 94.08162 14.91022 -18.83222 -0 0 16.07523 -24.48738 14.40422 10.01925 3.969296 -27.15929 -9.807584 -91.35591 12.88138 23.7422 0 0 -15.56828 12.51214 17.11441 -3.07126
